<?xml version="1.0" standalone="no"?><!DOCTYPE svg PUBLIC "-//W3C//DTD SVG 1.1//EN" "http://www.w3.org/Graphics/SVG/1.1/DTD/svg11.dtd"><svg t="1495100882329" class="icon" style="" viewBox="0 0 1024 1024" version="1.1" xmlns="http://www.w3.org/2000/svg" p-id="2411" xmlns:xlink="http://www.w3.org/1999/xlink" width="25" height="25"><defs><style type="text/css"></style></defs><path d="M305.738 162.564h171.039L330.449 361.393H138.1l167.64-198.829z m390.726 234.113h188.819l-324.82 385.728 136.001-385.728z m-322.201-35.284L511.67 174.689l137.42 186.704H374.262z m284.792 35.284L511.67 814.67 364.301 396.677h294.754z m-332.172 0l136 385.728-324.815-385.728h188.815z m558.365-35.284H692.9L546.562 162.564H717.62l167.628 198.829z m51.44 6.27L739.31 133.553a17.626 17.626 0 0 0-13.487-6.271H297.539a17.643 17.643 0 0 0-13.49 6.27L86.66 367.665a17.639 17.639 0 0 0-2.513 18.807c0.67 1.432 1.555 2.72 2.543 3.892l-0.039 0.035 425.02 504.72 425.023-504.72-0.04-0.035c0.991-1.172 1.874-2.46 2.543-3.892a17.634 17.634 0 0 0-2.508-18.807z" p-id="2412" fill="#f4ea2a"></path></svg>